<?xml version="1.0" encoding="UTF-8"?>
<svg id="Calque_2" data-name="Calque 2" xmlns="http://www.w3.org/2000/svg" xmlns:xlink="http://www.w3.org/1999/xlink" viewBox="0 0 401.5 142.77">
  <defs>
    <style>
      .cls-1 {
        fill: url(#Dégradé_sans_nom_11);
      }

      .cls-1, .cls-2, .cls-3 {
        stroke-width: 0px;
      }

      .cls-2 {
        fill: #1d7ef2;
      }

      .cls-3 {
        fill: #0b3d91;
      }
    </style>
    <linearGradient id="Dégradé_sans_nom_11" data-name="Dégradé sans nom 11" x1="-1818.28" y1="2093.8" x2="-1950.21" y2="2090.28" gradientTransform="translate(-2607.05 881.47) rotate(-148.4)" gradientUnits="userSpaceOnUse">
      <stop offset="0" stop-color="#0b3d91"/>
      <stop offset=".31" stop-color="#0f4eab"/>
      <stop offset=".97" stop-color="#1c7bee"/>
      <stop offset="1" stop-color="#1d7ef2"/>
    </linearGradient>
  </defs>
  <g id="Calque_1-2" data-name="Calque 1">
    <path class="cls-3" d="M307.36,74.6l-.28.89c-.85,2.72-2.2,5.1-4.02,7.09-1.81,1.97-4.11,3.5-6.84,4.55-2.77,1.06-6.03,1.59-9.7,1.59-4.6,0-8.79-.88-12.43-2.62-3.6-1.71-6.45-4.27-8.49-7.6-2.04-3.33-3.08-7.5-3.08-12.39s1.04-9.16,3.08-12.49c2.04-3.33,4.9-5.9,8.5-7.65,3.65-1.77,7.83-2.67,12.43-2.67,3.66,0,6.94.55,9.74,1.64,2.77,1.08,5.09,2.63,6.89,4.6,1.81,1.97,3.16,4.42,4.01,7.28l.27.9h13.09l-.16-1.41c-.61-5.35-2.4-10-5.33-13.82-2.92-3.81-6.85-6.78-11.68-8.83-4.79-2.02-10.45-3.05-16.84-3.05-5.44,0-10.52.77-15.09,2.3-4.6,1.54-8.66,3.86-12.05,6.91-3.41,3.05-6.08,6.81-7.93,11.16-1.85,4.33-2.78,9.42-2.78,15.12s.94,10.7,2.78,15.06c1.86,4.39,4.53,8.13,7.94,11.12,3.4,2.98,7.45,5.27,12.04,6.8,4.57,1.53,9.64,2.3,15.09,2.3,6.32,0,11.95-1.01,16.73-2.99,4.83-2,8.77-4.94,11.69-8.72,2.92-3.78,4.75-8.38,5.43-13.66l.18-1.42h-13.2Z"/>
    <path class="cls-2" d="M51.68,79.33c6.7,9.04,20.23,9.49,29.51,4.31,13.54-7.02,21.06-22.92,19.28-37.88-2.08-20.69-19.28-37.16-39.86-39.06-19.16-1.6-38.96,6.4-52.17,20.25l.65-1.06C28.95.15,70.73-9.62,97.18,11.57c24.73,19.16,29.24,56.58,2.09,75.76-6.48,4.79-14.56,7.56-22.65,6.7-9.78-.98-19.9-6.09-24.93-14.71Z"/>
    <path class="cls-1" d="M78.61,142.06C36.56,149.04-18.76,103.54,6.25,60.03c10.84-19.46,39.29-29.74,57.79-14.86,7.21,5.47,11.39,14.77,7.18,23.4-.19.42-1,2.23-.79.82.62-14.71-18.24-15.9-21.29-1.93-4.61,19.15,14.35,34.33,31.89,35.87,41.3,4.98,69.54-37,54.73-74.45,0,0-.02,0-.02,0,27.56,48.09-3.57,107.31-61.82,97.1-14.73-3.12-28.61-11.73-37.06-24.31-8.67-11.85-10.36-29.67-.59-41.39,6.31-8.58,18.38-12.49,27.99-7.13,1.29.61,2.45,1.87,3.61,2.44-.41-1.37-1.45-2.58-2.39-3.67-8.62-8.51-23.05-9.72-33.44-3.79-12.68,6.45-20,20.05-20.75,33.99-1.85,19.33,9.99,36.59,25.51,47.01,12.1,8.78,26.99,13.2,41.81,12.95,0,0,0-.02,0-.02Z"/>
    <g>
      <polygon class="cls-3" points="170.96 111.57 178.51 111.57 178.51 128.21 181.93 128.21 181.93 111.57 189.47 111.57 189.47 107.88 170.96 107.88 170.96 111.57"/>
      <path class="cls-3" d="M203.74,114.03c-.47-.4-.98-.69-1.53-.87-.55-.18-1.06-.27-1.53-.27h-6.17c-.86,0-1.59.17-2.19.51-.6.34-1.09.76-1.46,1.27-.37.51-.64,1.05-.81,1.64-.17.59-.25,1.14-.25,1.65v5.17c0,.93.16,1.71.47,2.36.32.65.71,1.17,1.18,1.57.47.4.98.69,1.53.87.55.18,1.06.27,1.53.27h6.17v-3.52h-6.14c-.42,0-.77-.14-1.06-.41-.28-.27-.43-.66-.43-1.15v-5.15c0-.45.13-.83.38-1.14.25-.31.61-.46,1.08-.46h6.17c.4,0,.75.14,1.03.41.29.27.43.65.43,1.13,0,.45-.13.83-.38,1.14-.25.31-.61.46-1.08.46h-6.17v3.5h6.17c.86,0,1.59-.17,2.19-.51.6-.34,1.09-.76,1.46-1.27.37-.51.64-1.05.81-1.64.17-.59.25-1.14.25-1.65,0-.93-.16-1.71-.47-2.36-.32-.65-.71-1.17-1.18-1.57Z"/>
      <path class="cls-3" d="M210.62,113.13c-.46.16-.87.37-1.23.64-.36.26-.66.57-.91.92-.25.35-.45.72-.61,1.1s-.27.77-.35,1.16c-.07.39-.11.76-.11,1.11v4.99c0,.95.16,1.76.48,2.42.32.66.72,1.19,1.2,1.6s1,.71,1.56.89c.56.18,1.08.27,1.55.27h9.27v-3.69h-9.25c-.46,0-.8-.13-1.04-.38-.24-.26-.36-.62-.36-1.11v-4.96c0-.51.12-.89.35-1.13.23-.25.57-.37,1.02-.37h9.27v-3.69h-9.27c-.59,0-1.11.08-1.58.24Z"/>
      <path class="cls-3" d="M239.29,115.02c-.25-.38-.53-.71-.86-.98-.32-.27-.66-.49-1.02-.66-.35-.17-.71-.3-1.07-.38-.36-.08-.7-.12-1.03-.12h-6.17v3.69h6.17c.46,0,.8.13,1.03.38.23.25.34.62.34,1.1v10.16h3.42v-10.16c0-.63-.07-1.2-.22-1.7-.15-.5-.35-.94-.59-1.33Z"/>
      <rect class="cls-3" x="224.35" y="106.41" width="3.42" height="21.8"/>
      <path class="cls-3" d="M257.92,115.71c-.33-.51-.71-.94-1.13-1.29-.43-.35-.87-.65-1.34-.88-.47-.23-.94-.4-1.42-.5-.48-.1-.93-.16-1.36-.16h-7.71c-.24,0-.46.05-.67.14-.21.09-.39.22-.55.39-.16.17-.28.36-.37.58-.09.22-.13.46-.13.72v13.5h3.42v-11.64h5.98c.41,0,.8.07,1.15.22.36.15.66.36.93.63.26.27.47.6.62.99.15.38.23.82.23,1.3v8.51h3.42v-8.51c0-.83-.1-1.58-.29-2.24-.19-.66-.45-1.25-.78-1.75Z"/>
      <path class="cls-3" d="M276.38,114.68c-.38-.52-.87-.94-1.49-1.28-.61-.34-1.36-.51-2.24-.51h-6.17c-.47,0-.99.09-1.55.27-.56.18-1.08.47-1.56.89s-.88.95-1.2,1.6c-.32.66-.48,1.46-.48,2.4v4.99c0,.95.16,1.76.48,2.42.32.66.72,1.19,1.2,1.6s1,.71,1.56.89c.56.18,1.08.27,1.55.27h6.17c.32,0,.67-.04,1.03-.12.36-.08.72-.21,1.08-.38.36-.17.69-.39,1.02-.66.32-.27.61-.6.85-.98s.44-.83.59-1.33c.15-.51.22-1.07.22-1.71v-4.99c0-.52-.09-1.08-.26-1.69-.17-.6-.45-1.16-.82-1.68ZM274.04,123.04c0,.48-.11.85-.34,1.11s-.57.38-1.04.38h-6.14c-.46,0-.8-.13-1.04-.38-.24-.26-.36-.62-.36-1.11v-4.99c0-.48.12-.85.36-1.1.24-.25.58-.38,1.04-.38h6.14c.45,0,.79.12,1.03.37.24.25.35.62.35,1.13v4.96Z"/>
      <path class="cls-3" d="M284.1,124.12c-.26-.27-.39-.63-.39-1.08v-16.63h-3.42v16.63c0,.95.16,1.76.47,2.42.32.66.71,1.19,1.2,1.6s1,.71,1.56.89c.56.18,1.08.27,1.57.27h1.53v-3.69h-1.53c-.39,0-.72-.13-.99-.4Z"/>
      <path class="cls-3" d="M303.2,114.68c-.38-.52-.87-.94-1.49-1.28-.61-.34-1.36-.51-2.24-.51h-6.17c-.47,0-.99.09-1.55.27-.56.18-1.08.47-1.56.89s-.88.95-1.2,1.6c-.32.66-.48,1.46-.48,2.4v4.99c0,.95.16,1.76.48,2.42.32.66.72,1.19,1.2,1.6s1,.71,1.56.89c.56.18,1.08.27,1.55.27h6.17c.32,0,.67-.04,1.03-.12.36-.08.72-.21,1.08-.38.36-.17.69-.39,1.02-.66.32-.27.61-.6.86-.98.25-.38.44-.83.59-1.33.15-.51.22-1.07.22-1.71v-4.99c0-.52-.09-1.08-.26-1.69-.17-.6-.44-1.16-.82-1.68ZM300.86,123.04c0,.48-.11.85-.34,1.11-.23.26-.57.38-1.04.38h-6.14c-.46,0-.8-.13-1.04-.38s-.36-.62-.36-1.11v-4.99c0-.48.12-.85.36-1.1.24-.25.58-.38,1.04-.38h6.14c.45,0,.79.12,1.03.37.24.25.36.62.36,1.13v4.96Z"/>
      <path class="cls-3" d="M321.84,115.02c-.25-.38-.53-.71-.86-.98-.32-.27-.66-.49-1.02-.66-.36-.17-.71-.3-1.08-.38-.36-.08-.71-.12-1.03-.12h-6.17c-.59,0-1.11.08-1.58.24-.46.16-.87.37-1.23.64-.36.26-.66.57-.91.92-.25.35-.45.72-.61,1.1-.16.38-.27.77-.35,1.16-.07.39-.11.76-.11,1.11v4.99c0,.63.07,1.2.22,1.71.15.51.35.95.59,1.33.25.38.53.71.85.98.32.27.66.49,1.02.66.36.17.71.3,1.07.38.36.08.7.12,1.03.12h6.17v-3.69h-6.14c-.46,0-.8-.13-1.04-.38-.24-.26-.36-.62-.36-1.11v-4.99c0-.43.12-.78.37-1.06.25-.28.58-.42,1-.42h6.17c.46,0,.81.13,1.04.38.23.25.34.62.34,1.1v11.64c0,.48-.11.85-.34,1.11-.23.26-.57.38-1.04.38h-6.17v3.69h6.17c.32,0,.67-.04,1.03-.12.36-.08.72-.21,1.08-.38.36-.17.69-.39,1.02-.66.32-.27.61-.6.86-.98s.44-.83.59-1.33c.15-.51.22-1.08.22-1.71v-11.64c0-.63-.07-1.2-.22-1.7-.15-.5-.35-.94-.59-1.33Z"/>
      <rect class="cls-3" x="325.84" y="106.41" width="3.42" height="3.33"/>
      <rect class="cls-3" x="325.84" y="112.89" width="3.42" height="15.32"/>
      <path class="cls-3" d="M346.18,114.03c-.47-.4-.98-.69-1.53-.87-.55-.18-1.06-.27-1.53-.27h-6.17c-.86,0-1.59.17-2.19.51-.6.34-1.09.76-1.46,1.27-.37.51-.64,1.05-.81,1.64-.17.59-.25,1.14-.25,1.65v5.17c0,.93.16,1.71.47,2.36.32.65.71,1.17,1.18,1.57.47.4.98.69,1.53.87.55.18,1.06.27,1.53.27h6.17v-3.52h-6.14c-.42,0-.77-.14-1.06-.41-.29-.27-.43-.66-.43-1.15v-5.15c0-.45.13-.83.38-1.14.25-.31.61-.46,1.08-.46h6.17c.4,0,.75.14,1.03.41.29.27.43.65.43,1.13,0,.45-.13.83-.38,1.14-.25.31-.61.46-1.08.46h-6.17v3.5h6.17c.86,0,1.59-.17,2.19-.51.6-.34,1.09-.76,1.46-1.27.37-.51.64-1.05.81-1.64.17-.59.25-1.14.25-1.65,0-.93-.16-1.71-.47-2.36-.32-.65-.71-1.17-1.18-1.57Z"/>
      <path class="cls-3" d="M363.62,121.35c-.17-.6-.45-1.16-.82-1.68-.38-.51-.87-.94-1.49-1.28-.61-.34-1.36-.51-2.24-.51h-5.3c-.08,0-.16,0-.24,0-.08,0-.16-.03-.22-.06-.07-.04-.12-.1-.16-.18-.04-.09-.07-.2-.08-.35,0-.08,0-.15.01-.23,0-.08.04-.16.09-.23s.12-.13.22-.17.24-.06.41-.06h8.38v-3.69h-8.4c-.42,0-.87.08-1.35.23s-.93.41-1.34.76c-.41.35-.75.81-1.03,1.37-.27.56-.41,1.25-.41,2.08,0,.43.07.88.22,1.38.14.49.38.95.71,1.38s.76.78,1.28,1.06,1.17.43,1.92.43h5.3c.88,0,1.34.49,1.38,1.47,0,.48-.12.85-.36,1.11s-.59.38-1.05.38h-9.23v3.69h9.26c.32,0,.67-.04,1.03-.12.36-.08.72-.21,1.08-.38.36-.17.7-.39,1.02-.66.32-.27.61-.6.86-.98.25-.38.44-.83.59-1.33.15-.51.22-1.07.22-1.71,0-.52-.09-1.08-.26-1.69Z"/>
    </g>
    <path class="cls-3" d="M212.25,43.52c2.51,0,4.8.41,6.87,1.22,2.07.81,3.84,1.95,5.33,3.42,1.49,1.47,2.64,3.25,3.45,5.33.81,2.08,1.22,4.38,1.22,6.89v11.6c0,2.55-.41,4.85-1.22,6.92-.81,2.07-1.96,3.84-3.45,5.31-1.49,1.47-3.27,2.61-5.33,3.42-2.07.81-4.36,1.22-6.87,1.22h-28.42v-41.48h-12.89v47.87c0,.93.17,1.79.5,2.58.33.79.79,1.48,1.36,2.06.58.58,1.26,1.03,2.06,1.36.79.33,1.65.5,2.58.5h34.81c4.27,0,8.22-.74,11.85-2.23,3.64-1.49,6.78-3.55,9.42-6.17,2.64-2.63,4.72-5.76,6.22-9.4,1.5-3.64,2.26-7.62,2.26-11.95v-11.6c0-4.3-.75-8.27-2.26-11.93-1.5-3.65-3.58-6.79-6.22-9.42-2.65-2.63-5.79-4.69-9.42-6.17-3.64-1.49-7.59-2.23-11.85-2.23h-41.13c-.93,0-1.79.17-2.58.5-.79.33-1.48.79-2.06,1.39-.58.6-1.03,1.29-1.36,2.08-.33.79-.5,1.64-.5,2.53v6.46l47.63-.06Z"/>
    <path class="cls-3" d="M400.65,76.75c-.56-2.08-1.32-3.95-2.28-5.6-.96-1.65-2.07-3.11-3.35-4.36-1.27-1.26-2.64-2.33-4.09-3.22,1.69-2.35,2.91-4.84,3.67-7.46.76-2.63,1.14-5.08,1.14-7.36v-2.43c0-2.88-.52-5.31-1.56-7.29-1.04-1.98-2.35-3.6-3.92-4.84-1.57-1.24-3.26-2.14-5.08-2.7-1.82-.56-3.52-.84-5.11-.84h-43.15c-.93,0-1.79.17-2.58.5-.79.33-1.48.79-2.06,1.39-.58.6-1.03,1.29-1.36,2.08-.33.79-.5,1.64-.5,2.53v47.78h12.89v-41.38h36.75c1.79,0,2.68.93,2.68,2.78v2.43c0,1.69-.26,3.2-.77,4.54-.51,1.34-1.25,2.49-2.21,3.45-.96.96-2.12,1.69-3.47,2.21-1.36.51-2.88.77-4.56.77h-23.26v12.99h29.06c1.69,0,3.21.26,4.56.77,1.36.51,2.51,1.25,3.47,2.21.96.96,1.7,2.11,2.23,3.45s.79,2.85.79,4.54v2.38c0,.69-.1,1.24-.3,1.64-.2.4-.43.68-.69.84-.26.17-.56.27-.89.3-.33.03-.61.05-.84.05h-46.34v-.03h-12.89v6.42c0,.93.17,1.79.5,2.58.33.79.79,1.48,1.36,2.06.58.58,1.26,1.03,2.06,1.36.79.33,1.65.5,2.58.5h52.74c2.88,0,5.31-.52,7.29-1.56,1.98-1.04,3.6-2.34,4.84-3.89,1.24-1.55,2.13-3.24,2.68-5.06.55-1.82.82-3.52.82-5.11v-2.48c0-2.51-.28-4.81-.84-6.89Z"/>
  </g>
</svg>